<svg width="197" height="80" viewBox="0 0 197 80" fill="none" xmlns="http://www.w3.org/2000/svg">
<g clip-path="url(#clip0_1_14)">
<path d="M25.0679 1.25155C23.5849 1.22452 22.1379 1.54874 20.7168 2.44686L20.7182 2.4428C20.0175 2.88608 19.2802 3.52827 18.5811 3.68358C16.2935 4.19327 14.3642 5.54874 12.1866 6.26873C11.1508 6.61045 10.6525 7.26983 10.6836 8.38655C10.2587 9.18702 9.58796 9.68811 8.8086 10.0709C8.11818 10.4087 7.46037 10.7947 7.25482 11.6467C7.25152 11.6495 7.24806 11.652 7.24476 11.655C6.43278 12.639 5.57889 13.589 4.75084 15.0601L30.1389 6.39592C29.0406 5.31014 27.9001 4.39124 29.1695 2.72514C28.031 2.80561 27.2261 3.49233 26.267 3.33811C26.8112 2.49592 27.9759 2.6742 28.5981 1.84686C27.3965 1.50592 26.2212 1.27249 25.0679 1.25155ZM38.6921 6.50873C37.6223 6.5778 36.5931 6.66561 35.7052 7.46467C34.6504 8.4078 33.4649 8.67577 32.2689 7.62686C31.3662 6.83467 30.4865 6.98467 29.4628 7.49999C27.099 8.69295 24.6743 9.75889 22.2767 10.8756C16.715 13.4785 11.1544 16.0843 5.59512 18.6928C3.81792 19.2972 3.73919 19.4651 4.14788 21.3061C4.44658 22.6501 4.98554 24.065 3.46903 25.0673C3.30284 25.1456 3.1622 25.2726 3.06434 25.4327C2.96648 25.5929 2.91564 25.7792 2.91805 25.9689C2.91655 25.9698 2.91519 25.9703 2.91369 25.9709C2.52003 27.4012 2.85013 28.7917 3.10001 30.1965C3.25883 31.0859 3.65655 31.052 4.31361 30.7273C5.80022 29.9905 7.30861 29.3 8.81551 28.6097C13.5801 26.4315 18.3455 24.255 23.1117 22.08C23.2453 22.0856 23.379 22.0729 23.5094 22.0422C23.3547 22.1272 23.2116 22.2281 23.1335 22.4175L18.2459 25.3964L10.886 29.2956C8.77749 29.674 6.94876 30.8586 4.95023 31.5306C3.71334 31.9456 3.95916 32.3934 4.80223 32.9708C5.59106 33.959 6.75328 34.2033 7.84337 34.5873C7.84487 34.5864 7.84637 34.5858 7.84787 34.5847C8.6926 34.9965 9.53222 35.4222 10.3864 35.814C11.1807 36.1812 11.919 36.3081 12.4024 35.2606C12.674 34.6662 13.1682 34.58 13.7601 34.8625C14.6823 35.3094 15.6587 35.3226 16.6458 35.1453L16.6449 35.1462C16.647 35.1464 16.6491 35.1462 16.6509 35.1465L16.6559 35.1508L16.6628 35.1475C17.0369 35.1814 17.4064 35.1864 17.7311 34.939C18.1778 34.939 18.6284 34.9023 19.0697 34.9489C21.1713 35.172 23.3598 34.4292 25.384 35.5926C25.7683 35.8128 26.1267 35.3767 26.4702 35.1947C30.1175 33.2535 33.7605 31.3036 37.3992 29.3451C42.2324 26.755 47.0641 24.1653 51.8937 21.5759C52.3078 21.353 53.2513 21.2556 52.4286 20.3845V20.3773C51.8646 19.1959 51.3591 17.992 51.159 16.6758C51.1605 16.6742 51.1617 16.6726 51.1629 16.6711C51.099 15.69 50.7773 14.7908 50.37 13.9126C50.0169 13.1601 49.6193 12.9509 48.7952 13.3322C46.8877 14.2159 44.9311 15.0223 42.9761 15.7494C41.021 16.4765 39.2058 17.6186 37.1042 17.915C37.1021 17.9147 37.1 17.9147 37.0979 17.9142L37.099 17.9136C37.0799 17.5789 37.3703 17.617 37.5455 17.5155L47.9159 11.5109C47.9539 10.5042 47.6064 9.5992 47.237 8.70123C47.2364 8.70175 47.2356 8.70212 47.2348 8.70233L47.2352 8.70123C46.7383 7.39249 45.8669 7.00967 44.607 7.53342C43.7528 7.90144 42.8426 8.10898 41.9187 8.14639V8.14342L41.912 8.14592L41.1938 8.08561C40.1837 7.86108 39.5484 6.99561 38.6917 6.50858L38.6921 6.50873ZM53.955 23.5411C53.7202 23.5558 53.4547 23.6583 53.1416 23.8292C49.3184 25.9145 45.4612 27.9317 41.615 29.969C37.0954 32.369 32.5688 34.7439 28.0656 37.1694C27.7819 37.3205 26.9852 37.2881 27.3654 38.0264C27.8618 38.9873 27.7114 40.0031 27.737 41.0106C27.7365 41.0106 27.7361 41.0111 27.7356 41.0112V41.0153C27.7248 41.509 27.715 42.0022 27.706 42.495C27.8118 43.2857 28.0904 44.0406 28.5205 44.7019L28.5253 44.703L28.5219 44.7045L29.0717 45.4656L30.3601 47.1428C30.5801 48.7028 31.3443 48.7197 32.6342 48.2609C37.3099 46.595 42.032 45.0645 46.7363 43.4833L47.0078 43.7742C47.009 43.774 47.0103 43.7738 47.0115 43.7736L41.8841 46.297C41.0301 46.5342 40.2549 46.9494 39.4877 47.3997C39.3753 47.3866 39.2616 47.4061 39.1591 47.4559C39.0566 47.5057 38.9693 47.584 38.9068 47.682C36.8701 48.4699 34.8859 49.3971 32.967 50.4576C32.9354 50.4422 32.8992 50.44 32.8661 50.4516C32.833 50.4631 32.8054 50.4875 32.7891 50.5197C32.3756 50.5666 31.9871 50.749 31.6799 51.0406C30.9671 51.2072 30.166 51.4487 30.204 52.3325C30.2989 54.5419 29.5618 56.5508 29.0134 58.6119L29.012 58.6123C28.8434 58.9179 28.7689 59.2699 28.7988 59.6209C28.8287 59.9719 28.9614 60.3048 29.1791 60.5748C29.5973 61.0958 30.1524 60.4815 30.6113 60.308C37.5757 57.6821 44.5342 55.0396 51.4868 52.3805C52.4059 52.0303 53.5854 51.875 54.1435 51.1903C54.7436 50.4519 53.9316 49.2617 53.9941 48.2494C54.0725 47.815 54.1523 47.3806 54.2308 46.9447C54.2311 46.944 54.2312 46.9437 54.232 46.9434C54.6501 45.6065 55.6738 44.6223 56.1965 43.3461L58.5806 39.9014C59.087 38.772 60.3291 38.4161 60.9889 37.4462L60.9581 37.4572L60.9821 37.4434C62.4008 36.5384 63.0075 35.0051 64.0067 33.4098L57.5554 35.4709C57.19 35.4959 56.8303 35.5517 56.4737 35.6234C56.663 35.5099 56.829 35.3588 56.9622 35.1787C57.3587 34.9811 57.7592 34.7878 58.1528 34.5831C60.2301 33.5045 62.5096 32.8761 64.4645 31.5264C64.4119 31.5162 64.3641 31.4879 64.3289 31.4459C64.3736 31.4712 64.4184 31.4967 64.4645 31.5264C64.6533 30.9376 64.5826 30.3389 64.4755 29.7558L64.4794 29.7644C64.3274 28.9384 63.9785 28.5148 63.1219 29.1106C62.5805 29.5139 61.9562 29.7803 61.2985 29.8887C61.2968 29.8898 61.2951 29.8909 61.2934 29.892C61.2935 29.8899 61.2939 29.8878 61.2946 29.8858C60.104 29.7925 58.8752 29.8167 58.058 28.6548H58.0619C57.6791 28.1084 57.2719 28.5022 56.8836 28.6631C53.8828 29.917 50.8828 31.1731 47.8836 32.4314C47.6585 32.4531 47.4433 32.5064 47.2325 32.5756C47.3613 32.4459 47.4743 32.3 47.5511 32.1165C49.7199 30.947 51.8867 29.7733 54.0514 28.5955C54.9949 28.0815 56.5373 27.7117 56.7166 26.9861C56.95 26.0456 55.4851 25.2733 54.9515 24.285C54.653 23.7353 54.3468 23.5165 53.9553 23.5411H53.955ZM54.3478 52.5531C54.2172 52.544 54.0494 52.5833 53.8339 52.6755C46.2568 55.9276 38.6725 59.1617 31.081 62.3776C30.5013 62.6291 30.3763 62.8492 30.6738 63.4761C31.3986 65.0006 32.0652 66.5576 32.4387 68.2276C32.4378 68.2278 32.4369 68.228 32.436 68.2281H32.4387V68.23C32.4835 68.6887 32.5908 69.1534 32.5622 69.6081C32.4943 70.66 32.6776 70.9831 33.7773 70.4748C38.8087 68.1451 43.8945 65.9456 48.9245 63.6147C51.0657 62.6222 52.5237 60.8589 53.4183 58.6C53.4166 58.6001 53.4149 58.6003 53.4132 58.6005C53.4144 58.6 53.4149 58.5994 53.4161 58.5981C54.714 57.0536 54.9164 55.207 54.7738 53.2672C54.741 52.8265 54.6352 52.5726 54.3481 52.553L54.3478 52.5531ZM62.7013 55.4401C62.0965 55.4448 61.7009 56.0948 61.4205 56.6766C61.1699 57.1948 60.9884 57.7497 60.776 58.289L60.7742 58.2908C60.4023 59.0884 60.1048 59.8012 58.925 59.6064C58.0954 59.4694 56.9577 60.1542 57.0378 60.9715C57.2034 62.6784 56.1052 64.1398 56.4419 65.8058C56.5714 65.9294 56.6975 65.9761 56.8216 65.9795C56.6718 66.0739 56.5319 66.1869 56.4133 66.3395C56.2042 67.1683 55.9761 67.9942 56.1974 68.8623C56.1986 68.8623 56.1997 68.8619 56.2015 68.8619C56.8479 70.3425 57.3333 70.5309 58.7301 70.1162C60.422 69.6115 60.4151 68.113 60.695 66.7605C60.9513 66.0676 61.1397 65.3676 61.0625 64.5423L58.6186 65.3131L58.6171 65.3201C58.4249 65.3951 58.2054 65.3383 58.0126 65.4214C58.1374 65.3181 58.2481 65.197 58.3319 65.042C58.7474 64.7892 59.1423 64.4831 59.5835 64.2911C62.6423 62.9683 63.1379 60.1798 63.3674 57.232C63.3809 56.6008 63.8018 55.7198 62.9737 55.4798C62.8851 55.4535 62.7934 55.4402 62.7013 55.4405V55.4401ZM48.9151 64.6859C43.7681 67.4489 38.8509 70.1456 33.8738 72.7165C32.5948 73.3787 32.3694 74.0987 33.0278 75.2919C33.3073 76.37 34.0345 77.0486 34.9272 77.5822V77.5834L34.9281 77.5831C34.9283 77.5831 34.9286 77.5831 34.9287 77.5834L34.9314 77.5839C35.2624 78.0459 35.729 78.2261 36.2551 78.2851C38.1192 79.4287 40.3443 78.3965 41.3693 75.9117C42.6728 75.1437 43.968 74.3447 45.2822 73.5908C46.1262 73.1067 46.7209 72.5083 46.5208 71.4065C46.5212 71.4061 46.5212 71.4053 46.5218 71.4048C46.7731 70.6806 47.6719 70.4998 47.8429 69.7106C47.6896 68.0065 49.0713 66.6045 48.9166 64.6887L48.9151 64.6859Z" fill="#964B00"/>
<path d="M28.0679 2.25155C26.5849 2.22452 25.1379 2.54874 23.7168 3.44686L23.7182 3.4428C23.0175 3.88608 22.2802 4.52827 21.5811 4.68358C19.2935 5.19327 17.3642 6.54874 15.1866 7.26873C14.1508 7.61045 13.6525 8.26983 13.6836 9.38655C13.2587 10.187 12.588 10.6881 11.8086 11.0709C11.1182 11.4087 10.4604 11.7947 10.2548 12.6467C10.2515 12.6495 10.2481 12.652 10.2448 12.655C9.43278 13.639 8.57889 14.589 7.75084 16.0601L33.1389 7.39592C32.0406 6.31014 30.9001 5.39124 32.1695 3.72514C31.031 3.80561 30.2261 4.49233 29.267 4.33811C29.8112 3.49592 30.9759 3.6742 31.5981 2.84686C30.3965 2.50592 29.2212 2.27249 28.0679 2.25155ZM41.6921 7.50873C40.6223 7.5778 39.5931 7.66561 38.7052 8.46467C37.6504 9.4078 36.4649 9.67577 35.2689 8.62686C34.3662 7.83467 33.4865 7.98467 32.4628 8.49999C30.099 9.69295 27.6743 10.7589 25.2767 11.8756C19.715 14.4785 14.1544 17.0843 8.59512 19.6928C6.81792 20.2972 6.73919 20.4651 7.14788 22.3061C7.44658 23.6501 7.98554 25.065 6.46903 26.0673C6.30284 26.1456 6.1622 26.2726 6.06434 26.4327C5.96648 26.5929 5.91564 26.7792 5.91805 26.9689C5.91655 26.9698 5.91519 26.9703 5.91369 26.9709C5.52003 28.4012 5.85013 29.7917 6.10001 31.1965C6.25883 32.0859 6.65655 32.052 7.31361 31.7273C8.80022 30.9905 10.3086 30.3 11.8155 29.6097C16.5801 27.4315 21.3455 25.255 26.1117 23.08C26.2453 23.0856 26.379 23.0729 26.5094 23.0422C26.3547 23.1272 26.2116 23.2281 26.1335 23.4175L21.2459 26.3964L13.886 30.2956C11.7775 30.674 9.94876 31.8586 7.95023 32.5306C6.71334 32.9456 6.95916 33.3934 7.80223 33.9708C8.59106 34.959 9.75328 35.2033 10.8434 35.5873C10.8449 35.5864 10.8464 35.5858 10.8479 35.5847C11.6926 35.9965 12.5322 36.4222 13.3864 36.814C14.1807 37.1812 14.919 37.3081 15.4024 36.2606C15.674 35.6662 16.1682 35.58 16.7601 35.8625C17.6823 36.3094 18.6587 36.3226 19.6458 36.1453L19.6449 36.1462C19.647 36.1464 19.6491 36.1462 19.6509 36.1465L19.6559 36.1508L19.6628 36.1475C20.0369 36.1814 20.4064 36.1864 20.7311 35.939C21.1778 35.939 21.6284 35.9023 22.0697 35.9489C24.1713 36.172 26.3598 35.4292 28.384 36.5926C28.7683 36.8128 29.1267 36.3767 29.4702 36.1947C33.1175 34.2535 36.7605 32.3036 40.3992 30.3451C45.2324 27.755 50.0641 25.1653 54.8937 22.5759C55.3078 22.353 56.2513 22.2556 55.4286 21.3845V21.3773C54.8646 20.1959 54.3591 18.992 54.159 17.6758C54.1605 17.6742 54.1617 17.6726 54.1629 17.6711C54.099 16.69 53.7773 15.7908 53.37 14.9126C53.0169 14.1601 52.6193 13.9509 51.7952 14.3322C49.8877 15.2159 47.9311 16.0223 45.9761 16.7494C44.021 17.4765 42.2058 18.6186 40.1042 18.915C40.1021 18.9147 40.1 18.9147 40.0979 18.9142L40.099 18.9136C40.0799 18.5789 40.3703 18.617 40.5455 18.5155L50.9159 12.5109C50.9539 11.5042 50.6064 10.5992 50.237 9.70123C50.2364 9.70175 50.2356 9.70212 50.2348 9.70233L50.2352 9.70123C49.7383 8.39249 48.8669 8.00967 47.607 8.53342C46.7528 8.90144 45.8426 9.10898 44.9187 9.14639V9.14342L44.912 9.14592L44.1938 9.08561C43.1837 8.86108 42.5484 7.99561 41.6917 7.50858L41.6921 7.50873ZM56.955 24.5411C56.7202 24.5558 56.4547 24.6583 56.1416 24.8292C52.3184 26.9145 48.4612 28.9317 44.615 30.969C40.0954 33.369 35.5688 35.7439 31.0656 38.1694C30.7819 38.3205 29.9852 38.2881 30.3654 39.0264C30.8618 39.9873 30.7114 41.0031 30.737 42.0106C30.7365 42.0106 30.7361 42.0111 30.7356 42.0112V42.0153C30.7248 42.509 30.715 43.0022 30.706 43.495C30.8118 44.2857 31.0904 45.0406 31.5205 45.7019L31.5253 45.703L31.5219 45.7045L32.0717 46.4656L33.3601 48.1428C33.5801 49.7028 34.3443 49.7197 35.6342 49.2609C40.3099 47.595 45.032 46.0645 49.7363 44.4833L50.0078 44.7742C50.009 44.774 50.0103 44.7738 50.0115 44.7736L44.8841 47.297C44.0301 47.5342 43.2549 47.9494 42.4877 48.3997C42.3753 48.3866 42.2616 48.4061 42.1591 48.4559C42.0566 48.5057 41.9693 48.584 41.9068 48.682C39.8701 49.4699 37.8859 50.3971 35.967 51.4576C35.9354 51.4422 35.8992 51.44 35.8661 51.4516C35.833 51.4631 35.8054 51.4875 35.7891 51.5197C35.3756 51.5666 34.9871 51.749 34.6799 52.0406C33.9671 52.2072 33.166 52.4487 33.204 53.3325C33.2989 55.5419 32.5618 57.5508 32.0134 59.6119L32.012 59.6123C31.8434 59.9179 31.7689 60.2699 31.7988 60.6209C31.8287 60.9719 31.9614 61.3048 32.1791 61.5748C32.5973 62.0958 33.1524 61.4815 33.6113 61.308C40.5757 58.6821 47.5342 56.0396 54.4868 53.3805C55.4059 53.0303 56.5854 52.875 57.1435 52.1903C57.7436 51.4519 56.9316 50.2617 56.9941 49.2494C57.0725 48.815 57.1523 48.3806 57.2308 47.9447C57.2311 47.944 57.2312 47.9437 57.232 47.9434C57.6501 46.6065 58.6738 45.6223 59.1965 44.3461L61.5806 40.9014C62.087 39.772 63.3291 39.4161 63.9889 38.4462L63.9581 38.4572L63.9821 38.4434C65.4008 37.5384 66.0075 36.0051 67.0067 34.4098L60.5554 36.4709C60.19 36.4959 59.8303 36.5517 59.4737 36.6234C59.663 36.5099 59.829 36.3588 59.9622 36.1787C60.3587 35.9811 60.7592 35.7878 61.1528 35.5831C63.2301 34.5045 65.5096 33.8761 67.4645 32.5264C67.4119 32.5162 67.3641 32.4879 67.3289 32.4459C67.3736 32.4712 67.4184 32.4967 67.4645 32.5264C67.6533 31.9376 67.5826 31.3389 67.4755 30.7558L67.4794 30.7644C67.3274 29.9384 66.9785 29.5148 66.1219 30.1106C65.5805 30.5139 64.9562 30.7803 64.2985 30.8887C64.2968 30.8898 64.2951 30.8909 64.2934 30.892C64.2935 30.8899 64.2939 30.8878 64.2946 30.8858C63.104 30.7925 61.8752 30.8167 61.058 29.6548H61.0619C60.6791 29.1084 60.2719 29.5022 59.8836 29.6631C56.8828 30.917 53.8828 32.1731 50.8836 33.4314C50.6585 33.4531 50.4433 33.5064 50.2325 33.5756C50.3613 33.4459 50.4743 33.3 50.5511 33.1165C52.7199 31.947 54.8867 30.7733 57.0514 29.5955C57.9949 29.0815 59.5373 28.7117 59.7166 27.9861C59.95 27.0456 58.4851 26.2733 57.9515 25.285C57.653 24.7353 57.3468 24.5165 56.9553 24.5411H56.955ZM57.3478 53.5531C57.2172 53.544 57.0494 53.5833 56.8339 53.6755C49.2568 56.9276 41.6725 60.1617 34.081 63.3776C33.5013 63.6291 33.3763 63.8492 33.6738 64.4761C34.3986 66.0006 35.0652 67.5576 35.4387 69.2276C35.4378 69.2278 35.4369 69.228 35.436 69.2281H35.4387V69.23C35.4835 69.6887 35.5908 70.1534 35.5622 70.6081C35.4943 71.66 35.6776 71.9831 36.7773 71.4748C41.8087 69.1451 46.8945 66.9456 51.9245 64.6147C54.0657 63.6222 55.5237 61.8589 56.4183 59.6C56.4166 59.6001 56.4149 59.6003 56.4132 59.6005C56.4144 59.6 56.4149 59.5994 56.4161 59.5981C57.714 58.0536 57.9164 56.207 57.7738 54.2672C57.741 53.8265 57.6352 53.5726 57.3481 53.553L57.3478 53.5531ZM65.7013 56.4401C65.0965 56.4448 64.7009 57.0948 64.4205 57.6766C64.1699 58.1948 63.9884 58.7497 63.776 59.289L63.7742 59.2908C63.4023 60.0884 63.1048 60.8012 61.925 60.6064C61.0954 60.4694 59.9577 61.1542 60.0378 61.9715C60.2034 63.6784 59.1052 65.1398 59.4419 66.8058C59.5714 66.9294 59.6975 66.9761 59.8216 66.9795C59.6718 67.0739 59.5319 67.1869 59.4133 67.3395C59.2042 68.1683 58.9761 68.9942 59.1974 69.8623C59.1986 69.8623 59.1997 69.8619 59.2015 69.8619C59.8479 71.3425 60.3333 71.5309 61.7301 71.1162C63.422 70.6115 63.4151 69.113 63.695 67.7605C63.9513 67.0676 64.1397 66.3676 64.0625 65.5423L61.6186 66.3131L61.6171 66.3201C61.4249 66.3951 61.2054 66.3383 61.0126 66.4214C61.1374 66.3181 61.2481 66.197 61.3319 66.042C61.7474 65.7892 62.1423 65.4831 62.5835 65.2911C65.6423 63.9683 66.1379 61.1798 66.3674 58.232C66.3809 57.6008 66.8018 56.7198 65.9737 56.4798C65.8851 56.4535 65.7934 56.4402 65.7013 56.4405V56.4401ZM51.9151 65.6859C46.7681 68.4489 41.8509 71.1456 36.8738 73.7165C35.5948 74.3787 35.3694 75.0987 36.0278 76.2919C36.3073 77.37 37.0345 78.0486 37.9272 78.5822V78.5834L37.9281 78.5831C37.9283 78.5831 37.9286 78.5831 37.9287 78.5834L37.9314 78.5839C38.2624 79.0459 38.729 79.2261 39.2551 79.2851C41.1192 80.4287 43.3443 79.3965 44.3693 76.9117C45.6728 76.1437 46.968 75.3447 48.2822 74.5908C49.1262 74.1067 49.7209 73.5083 49.5208 72.4065C49.5212 72.4061 49.5212 72.4053 49.5218 72.4048C49.7731 71.6806 50.6719 71.4998 50.8429 70.7106C50.6896 69.0065 52.0713 67.6045 51.9166 65.6887L51.9151 65.6859Z" fill="#964B00"/>
<g clip-path="url(#clip1_1_14)">
<path d="M24.0936 29.4058C24.1684 29.3606 24.2601 29.3606 24.3756 29.4301C24.5964 29.562 24.6814 30.1245 24.7221 30.3606C24.8275 30.9995 24.892 31.6419 24.96 32.2877C25.1468 34.0551 25.1672 36.1558 26.5397 37.4648C27.3755 38.2565 28.5272 38.4891 29.6279 38.5343C29.8895 38.5447 31.2688 38.4301 32.2302 38.378C32.75 38.3502 33.1509 38.3433 33.1611 38.3815C33.2494 38.694 33.4295 39.0481 33.0932 39.2183C32.8825 39.3225 32.6515 39.3919 32.4103 39.444C31.6629 39.6037 30.8 39.5481 30.1035 39.5516C28.8567 39.5655 27.5827 39.4093 26.4378 38.885C23.8015 37.6766 23.7335 34.3572 23.7641 31.8398C23.7675 31.3745 23.5976 29.7009 24.0936 29.4058Z" fill="white"/>
<path d="M32.9131 42.3502C32.5156 42.4197 32.1215 42.4648 31.7206 42.4961C30.8407 42.569 29.9642 42.6349 29.0809 42.5794C27.5759 42.4891 26.0063 42.4926 24.6168 41.8086C23.9951 41.4995 23.4515 41.0516 22.9929 40.5273C22.113 39.5065 21.5524 38.2322 21.1719 36.944C20.7269 35.4336 20.5196 33.8502 20.5842 32.2773C20.6046 31.8224 20.6385 31.3467 20.7133 30.8815C20.7948 30.3919 20.9171 29.9127 21.121 29.4717C21.2569 29.1801 21.5762 28.7877 21.9159 28.7287C22.5207 28.628 21.9771 30.1836 21.9329 30.4336C21.7597 31.5169 21.7155 32.7009 21.814 33.7947C21.9295 35.0724 22.2285 36.3363 22.7143 37.5204C23.319 38.9891 24.3314 40.3294 25.8127 40.9474C27.5861 41.687 29.526 41.5481 31.3945 41.4961C31.4964 41.4926 32.2336 41.4544 32.7636 41.4613C33.0592 41.4648 33.2902 41.4822 33.3038 41.5308C33.3581 41.7599 33.4703 42.0342 33.4193 42.2669C33.246 42.3051 33.0796 42.3259 32.9131 42.3502ZM37.4349 52.5655C37.1326 52.4023 37.0714 51.8988 36.9899 51.6037C36.538 49.9231 35.5732 43.4926 35.5732 43.4926C35.3762 42.0447 35.1961 40.5967 35.0228 39.1454C34.4147 34.1419 33.7658 29.1072 33.3378 24.1106C33.0354 20.5829 33.1101 16.3745 34.9889 13.2808C35.1859 12.9579 35.6819 12.1801 36.1542 12.3641L36.3172 12.5377C36.4056 12.7981 36.2731 13.0759 36.1677 13.3086C35.7872 14.1766 35.5766 15.1523 35.366 16.0759C34.3468 20.4405 34.9787 24.8849 35.2912 29.2981C35.6887 34.9162 37.9683 51.4891 37.9683 51.4891C38.0227 51.8398 38.1178 52.9336 37.4349 52.5655ZM40.6216 52.5447C40.2921 52.3988 40.3193 52.0863 40.2819 51.7773C39.8776 48.4509 39.7044 45.0933 39.385 41.753C39.2253 40.0273 39.0793 38.3016 38.9569 36.5724C38.5017 30.3329 38.179 24.0759 37.9785 17.8224C37.9615 17.2356 37.9615 16.6488 37.9649 16.062C37.9649 15.1315 38.0057 14.1037 38.1314 13.1766C38.1824 12.8224 38.2129 12.6106 38.5866 12.5169C39.1642 12.3745 39.3205 13.0516 39.436 13.4856C40.0475 15.8086 39.9795 18.4023 40.0067 20.7912C40.0815 26.8676 40.1732 32.9509 40.5537 39.0204C40.8085 43.0481 41.0939 47.0898 41.2128 51.1245C41.223 51.4752 41.2875 52.8294 40.6216 52.5447ZM45.1401 38.0134C45.0246 42.2495 45.045 46.5273 44.4436 50.7287C44.3995 51.0377 44.3995 51.5447 44.1209 51.7426C43.4856 52.1905 43.4516 51.0933 43.4618 50.7391C43.4618 50.7391 44.1549 34.3294 43.8729 28.7009C43.6487 24.2877 43.6928 20.4197 41.8753 15.9301C41.5185 15.0551 41.2264 14.1037 40.7405 13.2877C40.6114 13.0724 40.445 12.812 40.5027 12.5412L40.6454 12.3502C41.0871 12.1072 41.6782 12.8155 41.9092 13.1106C44.1447 15.9474 45.1469 20.0308 45.2726 24.6662C45.4085 29.5898 45.2794 33.0863 45.1401 38.0134ZM46.9882 31.4301C46.9984 31.4127 47.0018 31.3815 47.012 31.3641C47.1037 31.1905 47.3721 31.0516 47.5318 30.9613C47.5896 30.9301 47.6507 30.8954 47.7085 30.8676C49.7401 29.7391 52.5531 28.8606 53.5858 26.5829C54.177 25.2669 53.9528 23.6002 53.9799 22.1558C54.0139 20.2704 53.9052 18.4092 54.1226 16.5273C54.1566 16.2322 54.5167 13.1836 55.2132 13.8433C55.5733 14.1836 55.3355 14.9787 55.3015 15.4197C55.2437 16.128 55.2336 16.8363 55.2403 17.5447C55.2505 18.9197 55.3355 20.2947 55.3049 21.6697C55.2879 22.3711 55.3219 23.0724 55.3219 23.7704C55.3219 26.5516 54.4318 28.6454 51.928 29.9127C50.6845 30.5377 49.5872 31.2773 48.286 31.8016C48.1229 31.8676 47.8987 31.9752 47.6779 32.0412C47.4876 32.0967 47.294 32.1315 47.1411 32.062C47.046 32.0204 46.995 31.9231 46.9712 31.8155C46.9407 31.6836 46.9509 31.5412 46.9882 31.4301Z" fill="white"/>
<path d="M59.205 21.8329C59.0895 24.3884 59.0929 27.062 57.9752 29.4162C57.3773 30.6731 56.426 31.5412 55.3627 32.385C53.4669 33.8988 51.2451 34.8815 49.0572 35.8468C48.7413 35.9856 48.0074 36.3745 47.5182 36.3711C47.226 36.3711 47.0222 36.2287 47.0392 35.8155C47.0494 35.5516 47.1819 35.3016 47.4163 35.1836C47.4707 35.1593 47.525 35.1315 47.5794 35.1072C47.8308 34.9856 48.0924 34.8711 48.3438 34.7426C49.1048 34.3398 49.8896 33.9787 50.6607 33.5968C52.4953 32.6905 54.5643 31.6593 55.8757 30.0134L55.964 29.9023C56.1882 29.6037 56.3886 29.2947 56.5687 28.9718C57.3229 27.6176 57.6694 26.0759 57.8121 24.5343C58.0126 22.3572 58.1009 20.1245 57.9344 17.944C57.8767 17.1766 57.7849 16.4127 57.6253 15.6593C57.5879 15.4995 57.5369 15.3259 57.4792 15.1488C57.3399 14.7113 57.1734 14.2356 57.2176 13.8398C57.2482 13.5516 57.3943 13.2808 57.7102 13.378C58.8721 13.7252 59.0793 16.2183 59.1813 17.1905C59.3477 18.7356 59.273 20.2877 59.205 21.8329Z" fill="white"/>
<path d="M61.6953 15.2148C61.2094 12.7877 59.504 10.878 56.725 10.8676C54.5507 10.8606 52.5395 12.2877 51.9415 14.1176C51.2926 16.0759 51.7003 19.2009 51.7139 21.2218C51.7241 22.635 51.8906 23.7634 51.3674 25.1141C50.9495 26.1975 50.1138 26.9961 49.2067 27.6593C48.7345 28.003 48.2622 28.3363 47.7866 28.6662C48.0788 20.1523 48.1977 10.6627 39.154 10.7287C29.0945 10.8016 29.8249 21.4197 30.5859 27.7287C30.8373 29.8225 31.3231 32.9405 31.8565 36.1766C31.262 36.1905 30.698 36.2287 30.4602 36.2009C29.8317 36.1245 29.176 35.9266 28.7276 35.4579C28.184 34.8954 28.218 34.2287 28.0039 33.5273C27.5215 31.9787 27.3788 30.3155 26.5125 28.9093C25.9893 28.0551 25.2351 27.4891 24.2907 27.1905L24.2533 27.1766C21.1957 26.3155 18.9399 29.0308 18.6341 31.9162C18.3963 34.2079 18.9059 36.7391 19.8673 38.8051C20.6351 40.4579 21.6136 42.2738 23.1662 43.2738C26.0267 45.1141 30.0356 44.6905 33.2528 44.2843C33.2868 44.4961 33.3242 44.7044 33.3615 44.9023C33.8609 47.7183 33.9595 51.0169 34.8632 52.1593C35.8382 53.3919 38.0566 54.7669 40.4586 54.7669C43.2478 54.7669 44.9736 53.4336 45.8671 51.6627C46.4548 50.4926 46.7708 46.9683 46.9305 44.9926C47.0596 43.4058 47.2091 41.3988 47.3415 39.3363C49.0538 38.6002 53.1714 36.7843 56.0931 35.1697C59.8641 33.0829 60.7406 29.4162 61.1381 27.0725C61.539 24.7252 62.2151 17.8086 61.6953 15.2148ZM24.0936 29.4058C24.1684 29.3606 24.2601 29.3606 24.3756 29.4301C24.5964 29.562 24.6814 30.1245 24.7221 30.3606C24.8274 30.9995 24.892 31.6419 24.9599 32.2877C25.1468 34.0551 25.1672 36.1558 26.5397 37.4648C27.3754 38.2565 28.5271 38.4891 29.6279 38.5343C29.8895 38.5447 31.2688 38.4301 32.2302 38.378C32.75 38.3502 33.1509 38.3433 33.1611 38.3815C33.2494 38.694 33.4295 39.0481 33.0931 39.2183C32.8825 39.3225 32.6515 39.3919 32.4103 39.444C31.6629 39.6037 30.7999 39.5481 30.1035 39.5516C28.8567 39.5655 27.5827 39.4093 26.4378 38.885C23.8014 37.6766 23.7335 34.3572 23.7641 31.8398C23.7675 31.3745 23.5976 29.7009 24.0936 29.4058ZM32.9131 42.3502C32.5156 42.4197 32.1215 42.4648 31.7206 42.4961C30.8407 42.569 29.9642 42.635 29.0809 42.5794C27.5759 42.4891 26.0063 42.4926 24.6168 41.8086C23.9951 41.4995 23.4515 41.0516 22.9929 40.5273C22.113 39.5065 21.5524 38.2322 21.1719 36.944C20.7269 35.4336 20.5196 33.8502 20.5842 32.2773C20.6046 31.8225 20.6385 31.3468 20.7133 30.8815C20.7948 30.3919 20.9171 29.9127 21.121 29.4718C21.2569 29.1801 21.5762 28.7877 21.9159 28.7287C22.5207 28.628 21.9771 30.1836 21.9329 30.4336C21.7597 31.5169 21.7155 32.7009 21.814 33.7947C21.9295 35.0725 22.2285 36.3363 22.7143 37.5204C23.319 38.9891 24.3314 40.3294 25.8127 40.9475C27.5861 41.687 29.526 41.5481 31.3945 41.4961C31.4964 41.4926 32.2336 41.4544 32.7636 41.4613C33.0592 41.4648 33.2902 41.4822 33.3038 41.5308C33.3581 41.76 33.4703 42.0343 33.4193 42.2669C33.246 42.3051 33.0796 42.3259 32.9131 42.3502ZM37.4349 52.5655C37.1326 52.4023 37.0714 51.8988 36.9899 51.6037C36.538 49.9231 35.5732 43.4926 35.5732 43.4926C35.3762 42.0447 35.1961 40.5968 35.0228 39.1454C34.4147 34.1419 33.7658 29.1072 33.3378 24.1106C33.0354 20.5829 33.1101 16.3745 34.9889 13.2808C35.1859 12.9579 35.6819 12.1801 36.1541 12.3641L36.3172 12.5377C36.4055 12.7981 36.273 13.0759 36.1677 13.3086C35.7872 14.1766 35.5766 15.1523 35.366 16.0759C34.3468 20.4405 34.9787 24.885 35.2912 29.2981C35.6887 34.9162 37.9683 51.4891 37.9683 51.4891C38.0227 51.8398 38.1178 52.9336 37.4349 52.5655ZM40.6216 52.5447C40.2921 52.3988 40.3193 52.0863 40.2819 51.7773C39.8776 48.4509 39.7044 45.0933 39.385 41.753C39.2253 40.0273 39.0792 38.3016 38.9569 36.5725C38.5017 30.3329 38.1789 24.0759 37.9785 17.8225C37.9615 17.2356 37.9615 16.6488 37.9649 16.062C37.9649 15.1315 38.0057 14.1037 38.1314 13.1766C38.1823 12.8225 38.2129 12.6106 38.5866 12.5169C39.1642 12.3745 39.3205 13.0516 39.436 13.4856C40.0475 15.8086 39.9795 18.4023 40.0067 20.7912C40.0815 26.8676 40.1732 32.9509 40.5537 39.0204C40.8085 43.0481 41.0939 47.0898 41.2128 51.1245C41.223 51.4752 41.2875 52.8294 40.6216 52.5447ZM45.1401 38.0134C45.0246 42.2495 45.045 46.5273 44.4436 50.7287C44.3995 51.0377 44.3995 51.5447 44.1209 51.7426C43.4856 52.1905 43.4516 51.0933 43.4618 50.7391C43.4618 50.7391 44.1549 34.3294 43.8729 28.7009C43.6487 24.2877 43.6928 20.4197 41.8752 15.9301C41.5185 15.0551 41.2264 14.1037 40.7405 13.2877C40.6114 13.0725 40.445 12.812 40.5027 12.5412L40.6454 12.3502C41.0871 12.1072 41.6782 12.8155 41.9092 13.1106C44.1447 15.9475 45.1469 20.0308 45.2726 24.6662C45.4085 29.5898 45.2794 33.0863 45.1401 38.0134ZM46.9882 31.4301C46.9984 31.4127 47.0018 31.3815 47.012 31.3641C47.1037 31.1905 47.3721 31.0516 47.5318 30.9613C47.5896 30.9301 47.6507 30.8954 47.7085 30.8676C49.7401 29.7391 52.5531 28.8606 53.5858 26.5829C54.177 25.2669 53.9528 23.6002 53.9799 22.1558C54.0139 20.2704 53.9052 18.4093 54.1226 16.5273C54.1566 16.2322 54.5167 13.1836 55.2132 13.8433C55.5733 14.1836 55.3355 14.9787 55.3015 15.4197C55.2437 16.128 55.2335 16.8363 55.2403 17.5447C55.2505 18.9197 55.3355 20.2947 55.3049 21.6697C55.2879 22.3711 55.3219 23.0725 55.3219 23.7704C55.3219 26.5516 54.4318 28.6454 51.9279 29.9127C50.6845 30.5377 49.5872 31.2773 48.286 31.8016C48.1229 31.8676 47.8987 31.9752 47.6779 32.0412C47.4876 32.0968 47.294 32.1315 47.1411 32.062C47.046 32.0204 46.995 31.9231 46.9712 31.8155C46.9407 31.6836 46.9509 31.5412 46.9882 31.4301ZM59.205 21.8329C59.0895 24.3884 59.0929 27.062 57.9752 29.4162C57.3773 30.6731 56.426 31.5412 55.3626 32.385C53.4669 33.8988 51.2451 34.8815 49.0572 35.8468C48.7412 35.9856 48.0074 36.3745 47.5182 36.3711C47.226 36.3711 47.0222 36.2287 47.0392 35.8155C47.0494 35.5516 47.1819 35.3016 47.4163 35.1836C47.4706 35.1593 47.525 35.1315 47.5794 35.1072C47.8308 34.9857 48.0924 34.8711 48.3438 34.7426C49.1048 34.3398 49.8895 33.9787 50.6607 33.5968C52.4953 32.6905 54.5643 31.6593 55.8756 30.0134L55.964 29.9023C56.1882 29.6037 56.3886 29.2947 56.5687 28.9718C57.3229 27.6176 57.6694 26.0759 57.8121 24.5343C58.0126 22.3572 58.1009 20.1245 57.9344 17.944C57.8767 17.1766 57.7849 16.4127 57.6253 15.6593C57.5879 15.4995 57.5369 15.3259 57.4792 15.1488C57.3399 14.7113 57.1734 14.2356 57.2176 13.8398C57.2482 13.5516 57.3942 13.2808 57.7102 13.378C58.8721 13.7252 59.0793 16.2183 59.1812 17.1905C59.3477 18.7357 59.273 20.2877 59.205 21.8329Z" fill="#327609"/>
</g>
</g>
<g clip-path="url(#clip2_1_14)">
<path d="M21.0936 28.4058C21.1684 28.3606 21.2601 28.3606 21.3756 28.4301C21.5964 28.562 21.6814 29.1245 21.7221 29.3606C21.8275 29.9995 21.892 30.6419 21.96 31.2877C22.1468 33.0551 22.1672 35.1558 23.5397 36.4648C24.3755 37.2565 25.5272 37.4891 26.6279 37.5343C26.8895 37.5447 28.2688 37.4301 29.2302 37.378C29.75 37.3502 30.1509 37.3433 30.1611 37.3815C30.2494 37.694 30.4295 38.0481 30.0932 38.2183C29.8825 38.3225 29.6515 38.3919 29.4103 38.444C28.6629 38.6037 27.8 38.5481 27.1035 38.5516C25.8567 38.5655 24.5827 38.4093 23.4378 37.885C20.8015 36.6766 20.7335 33.3572 20.7641 30.8398C20.7675 30.3745 20.5976 28.7009 21.0936 28.4058Z" fill="white"/>
<path d="M29.9131 41.3502C29.5156 41.4197 29.1215 41.4648 28.7206 41.4961C27.8407 41.569 26.9642 41.6349 26.0809 41.5794C24.5759 41.4891 23.0063 41.4926 21.6168 40.8086C20.9951 40.4995 20.4515 40.0516 19.9929 39.5273C19.113 38.5065 18.5524 37.2322 18.1719 35.944C17.7269 34.4336 17.5196 32.8502 17.5842 31.2773C17.6046 30.8224 17.6385 30.3467 17.7133 29.8815C17.7948 29.3919 17.9171 28.9127 18.121 28.4717C18.2569 28.1801 18.5762 27.7877 18.9159 27.7287C19.5207 27.628 18.9771 29.1836 18.9329 29.4336C18.7597 30.5169 18.7155 31.7009 18.814 32.7947C18.9295 34.0724 19.2285 35.3363 19.7143 36.5204C20.319 37.9891 21.3314 39.3294 22.8127 39.9474C24.5861 40.687 26.526 40.5481 28.3945 40.4961C28.4964 40.4926 29.2336 40.4544 29.7636 40.4613C30.0592 40.4648 30.2902 40.4822 30.3038 40.5308C30.3581 40.7599 30.4703 41.0342 30.4193 41.2669C30.246 41.3051 30.0796 41.3259 29.9131 41.3502ZM34.4349 51.5655C34.1326 51.4023 34.0714 50.8988 33.9899 50.6037C33.538 48.9231 32.5732 42.4926 32.5732 42.4926C32.3762 41.0447 32.1961 39.5967 32.0228 38.1454C31.4147 33.1419 30.7658 28.1072 30.3378 23.1106C30.0354 19.5829 30.1101 15.3745 31.9889 12.2808C32.1859 11.9579 32.6819 11.1801 33.1542 11.3641L33.3172 11.5377C33.4056 11.7981 33.2731 12.0759 33.1677 12.3086C32.7872 13.1766 32.5766 14.1523 32.366 15.0759C31.3468 19.4405 31.9787 23.8849 32.2912 28.2981C32.6887 33.9162 34.9683 50.4891 34.9683 50.4891C35.0227 50.8398 35.1178 51.9336 34.4349 51.5655ZM37.6216 51.5447C37.2921 51.3988 37.3193 51.0863 37.2819 50.7773C36.8776 47.4509 36.7044 44.0933 36.385 40.753C36.2253 39.0273 36.0793 37.3016 35.9569 35.5724C35.5017 29.3329 35.179 23.0759 34.9785 16.8224C34.9615 16.2356 34.9615 15.6488 34.9649 15.062C34.9649 14.1315 35.0057 13.1037 35.1314 12.1766C35.1824 11.8224 35.2129 11.6106 35.5866 11.5169C36.1642 11.3745 36.3205 12.0516 36.436 12.4856C37.0475 14.8086 36.9795 17.4023 37.0067 19.7912C37.0815 25.8676 37.1732 31.9509 37.5537 38.0204C37.8085 42.0481 38.0939 46.0898 38.2128 50.1245C38.223 50.4752 38.2875 51.8294 37.6216 51.5447ZM42.1401 37.0134C42.0246 41.2495 42.045 45.5273 41.4436 49.7287C41.3995 50.0377 41.3995 50.5447 41.1209 50.7426C40.4856 51.1905 40.4516 50.0933 40.4618 49.7391C40.4618 49.7391 41.1549 33.3294 40.8729 27.7009C40.6487 23.2877 40.6928 19.4197 38.8753 14.9301C38.5185 14.0551 38.2264 13.1037 37.7405 12.2877C37.6114 12.0724 37.445 11.812 37.5027 11.5412L37.6454 11.3502C38.0871 11.1072 38.6782 11.8155 38.9092 12.1106C41.1447 14.9474 42.1469 19.0308 42.2726 23.6662C42.4085 28.5898 42.2794 32.0863 42.1401 37.0134ZM43.9882 30.4301C43.9984 30.4127 44.0018 30.3815 44.012 30.3641C44.1037 30.1905 44.3721 30.0516 44.5318 29.9613C44.5896 29.9301 44.6507 29.8954 44.7085 29.8676C46.7401 28.7391 49.5531 27.8606 50.5858 25.5829C51.177 24.2669 50.9528 22.6002 50.9799 21.1558C51.0139 19.2704 50.9052 17.4092 51.1226 15.5273C51.1566 15.2322 51.5167 12.1836 52.2132 12.8433C52.5733 13.1836 52.3355 13.9787 52.3015 14.4197C52.2437 15.128 52.2336 15.8363 52.2403 16.5447C52.2505 17.9197 52.3355 19.2947 52.3049 20.6697C52.2879 21.3711 52.3219 22.0724 52.3219 22.7704C52.3219 25.5516 51.4318 27.6454 48.928 28.9127C47.6845 29.5377 46.5872 30.2773 45.286 30.8016C45.1229 30.8676 44.8987 30.9752 44.6779 31.0412C44.4876 31.0967 44.294 31.1315 44.1411 31.062C44.046 31.0204 43.995 30.9231 43.9712 30.8155C43.9407 30.6836 43.9509 30.5412 43.9882 30.4301Z" fill="white"/>
<path d="M56.205 20.8329C56.0895 23.3884 56.0929 26.062 54.9752 28.4162C54.3773 29.6731 53.426 30.5412 52.3627 31.385C50.4669 32.8988 48.2451 33.8815 46.0572 34.8468C45.7413 34.9856 45.0074 35.3745 44.5182 35.3711C44.226 35.3711 44.0222 35.2287 44.0392 34.8155C44.0494 34.5516 44.1819 34.3016 44.4163 34.1836C44.4707 34.1593 44.525 34.1315 44.5794 34.1072C44.8308 33.9856 45.0924 33.8711 45.3438 33.7426C46.1048 33.3398 46.8896 32.9787 47.6607 32.5968C49.4953 31.6905 51.5643 30.6593 52.8757 29.0134L52.964 28.9023C53.1882 28.6037 53.3886 28.2947 53.5687 27.9718C54.3229 26.6176 54.6694 25.0759 54.8121 23.5343C55.0126 21.3572 55.1009 19.1245 54.9344 16.944C54.8767 16.1766 54.7849 15.4127 54.6253 14.6593C54.5879 14.4995 54.5369 14.3259 54.4792 14.1488C54.3399 13.7113 54.1734 13.2356 54.2176 12.8398C54.2482 12.5516 54.3943 12.2808 54.7102 12.378C55.8721 12.7252 56.0793 15.2183 56.1813 16.1905C56.3477 17.7356 56.273 19.2877 56.205 20.8329Z" fill="white"/>
<path d="M59.1192 14.4865C58.6333 12.0594 56.9279 10.1496 54.1489 10.1392C51.9746 10.1323 49.9634 11.5594 49.3654 13.3892C48.7165 15.3476 49.1242 18.4726 49.1378 20.4934C49.148 21.9066 49.3145 23.0351 48.7913 24.3858C48.3734 25.4691 47.5377 26.2677 46.6306 26.9309C46.1583 27.2746 45.6861 27.608 45.2105 27.9378C45.5027 19.424 45.6216 9.93437 36.5779 10.0003C26.5184 10.0733 27.2488 20.6913 28.0098 27.0003C28.2612 29.0941 28.747 32.2121 29.2804 35.4483C28.6859 35.4621 28.1219 35.5003 27.8841 35.4726C27.2556 35.3962 26.5999 35.1983 26.1515 34.7295C25.6079 34.167 25.6419 33.5003 25.4278 32.799C24.9454 31.2503 24.8027 29.5871 23.9364 28.1809C23.4132 27.3267 22.659 26.7608 21.7146 26.4621L21.6772 26.4483C18.6196 25.5871 16.3638 28.3024 16.058 31.1878C15.8202 33.4795 16.3298 36.0108 17.2912 38.0767C18.059 39.7295 19.0375 41.5455 20.59 42.5455C23.4506 44.3858 27.4594 43.9621 30.6767 43.5559C30.7107 43.7677 30.7481 43.976 30.7854 44.174C31.2848 46.9899 31.3834 50.2885 32.287 51.4309C33.2621 52.6635 35.4805 54.0385 37.8824 54.0385C40.6717 54.0385 42.3975 52.7052 43.291 50.9344C43.8787 49.7642 44.1947 46.2399 44.3544 44.2642C44.4835 42.6774 44.6329 40.6705 44.7654 38.608C46.4777 37.8719 50.5953 36.0559 53.517 34.4413C57.288 32.3545 58.1645 28.6878 58.562 26.3441C58.9629 23.9969 59.6389 17.0802 59.1192 14.4865ZM21.5175 28.6774C21.5923 28.6323 21.684 28.6323 21.7995 28.7017C22.0203 28.8337 22.1052 29.3962 22.146 29.6323C22.2513 30.2712 22.3159 30.9135 22.3838 31.5594C22.5707 33.3267 22.5911 35.4274 23.9636 36.7365C24.7993 37.5281 25.951 37.7608 27.0518 37.8059C27.3134 37.8163 28.6927 37.7017 29.6541 37.6496C30.1739 37.6219 30.5748 37.6149 30.585 37.6531C30.6733 37.9656 30.8534 38.3198 30.517 38.4899C30.3064 38.5941 30.0754 38.6635 29.8342 38.7156C29.0868 38.8753 28.2238 38.8198 27.5274 38.8233C26.2806 38.8371 25.0066 38.6809 23.8617 38.1566C21.2253 36.9483 21.1574 33.6288 21.188 31.1115C21.1914 30.6462 21.0215 28.9726 21.5175 28.6774ZM30.337 41.6219C29.9395 41.6913 29.5454 41.7365 29.1445 41.7677C28.2646 41.8406 27.3881 41.9066 26.5048 41.851C24.9998 41.7608 23.4302 41.7642 22.0407 41.0802C21.419 40.7712 20.8754 40.3233 20.4168 39.799C19.5369 38.7781 18.9763 37.5038 18.5958 36.2156C18.1508 34.7052 17.9435 33.1219 18.0081 31.549C18.0285 31.0941 18.0624 30.6184 18.1372 30.1531C18.2187 29.6635 18.341 29.1844 18.5448 28.7434C18.6807 28.4517 19.0001 28.0594 19.3398 28.0003C19.9445 27.8996 19.401 29.4552 19.3568 29.7052C19.1835 30.7885 19.1394 31.9726 19.2379 33.0663C19.3534 34.3441 19.6524 35.608 20.1382 36.792C20.7429 38.2608 21.7553 39.601 23.2366 40.2191C25.01 40.9587 26.9498 40.8198 28.8184 40.7677C28.9203 40.7642 29.6575 40.726 30.1875 40.733C30.4831 40.7365 30.7141 40.7538 30.7277 40.8024C30.782 41.0316 30.8941 41.3059 30.8432 41.5385C30.6699 41.5767 30.5034 41.5976 30.337 41.6219ZM34.8588 51.8371C34.5565 51.674 34.4953 51.1705 34.4138 50.8753C33.9619 49.1948 32.9971 42.7642 32.9971 42.7642C32.8 41.3163 32.62 39.8684 32.4467 38.417C31.8386 33.4135 31.1897 28.3788 30.7616 23.3823C30.4593 19.8545 30.534 15.6462 32.4127 12.5524C32.6098 12.2295 33.1058 11.4517 33.578 11.6358L33.7411 11.8094C33.8294 12.0698 33.6969 12.3476 33.5916 12.5802C33.2111 13.4483 33.0005 14.424 32.7899 15.3476C31.7707 19.7121 32.4026 24.1566 32.7151 28.5698C33.1126 34.1878 35.3922 50.7608 35.3922 50.7608C35.4466 51.1115 35.5417 52.2052 34.8588 51.8371ZM38.0455 51.8163C37.716 51.6705 37.7432 51.358 37.7058 51.049C37.3015 47.7226 37.1282 44.3649 36.8089 41.0246C36.6492 39.299 36.5031 37.5733 36.3808 35.8441C35.9256 29.6045 35.6028 23.3476 35.4024 17.0941C35.3854 16.5073 35.3854 15.9205 35.3888 15.3337C35.3888 14.4031 35.4296 13.3753 35.5553 12.4483C35.6062 12.0941 35.6368 11.8823 36.0105 11.7885C36.5881 11.6462 36.7443 12.3233 36.8599 12.7573C37.4714 15.0802 37.4034 17.674 37.4306 20.0628C37.5053 26.1392 37.5971 32.2226 37.9776 38.292C38.2324 42.3198 38.5177 46.3615 38.6367 50.3962C38.6468 50.7469 38.7114 52.101 38.0455 51.8163ZM42.564 37.2851C42.4485 41.5212 42.4688 45.799 41.8675 50.0003C41.8233 50.3094 41.8233 50.8163 41.5448 51.0142C40.9095 51.4621 40.8755 50.3649 40.8857 50.0108C40.8857 50.0108 41.5787 33.601 41.2968 27.9726C41.0725 23.5594 41.1167 19.6913 39.2991 15.2017C38.9424 14.3267 38.6502 13.3753 38.1644 12.5594C38.0353 12.3441 37.8689 12.0837 37.9266 11.8128L38.0693 11.6219C38.511 11.3788 39.1021 12.0871 39.3331 12.3823C41.5686 15.2191 42.5708 19.3024 42.6965 23.9378C42.8324 28.8615 42.7033 32.358 42.564 37.2851ZM44.4121 30.7017C44.4223 30.6844 44.4257 30.6531 44.4359 30.6358C44.5276 30.4621 44.796 30.3233 44.9557 30.233C45.0134 30.2017 45.0746 30.167 45.1323 30.1392C47.164 29.0108 49.9769 28.1323 51.0097 25.8545C51.6009 24.5385 51.3766 22.8719 51.4038 21.4274C51.4378 19.542 51.3291 17.6809 51.5465 15.799C51.5805 15.5038 51.9406 12.4552 52.6371 13.1149C52.9972 13.4552 52.7594 14.2503 52.7254 14.6913C52.6676 15.3996 52.6574 16.108 52.6642 16.8163C52.6744 18.1913 52.7594 19.5663 52.7288 20.9413C52.7118 21.6427 52.7458 22.3441 52.7458 23.042C52.7458 25.8233 51.8557 27.917 49.3518 29.1844C48.1084 29.8094 47.0111 30.549 45.7099 31.0733C45.5468 31.1392 45.3226 31.2469 45.1018 31.3128C44.9115 31.3684 44.7179 31.4031 44.565 31.3337C44.4699 31.292 44.4189 31.1948 44.3951 31.0871C44.3645 30.9552 44.3747 30.8128 44.4121 30.7017ZM56.6289 21.1045C56.5134 23.6601 56.5168 26.3337 55.3991 28.6878C54.8012 29.9448 53.8499 30.8128 52.7865 31.6566C50.8908 33.1705 48.669 34.1531 46.4811 35.1184C46.1651 35.2573 45.4313 35.6462 44.9421 35.6427C44.6499 35.6427 44.4461 35.5003 44.4631 35.0871C44.4733 34.8233 44.6058 34.5733 44.8402 34.4552C44.8945 34.4309 44.9489 34.4031 45.0032 34.3788C45.2547 34.2573 45.5162 34.1427 45.7676 34.0142C46.5287 33.6115 47.3134 33.2503 48.0846 32.8684C49.9192 31.9621 51.9882 30.9309 53.2995 29.2851L53.3879 29.174C53.6121 28.8753 53.8125 28.5663 53.9926 28.2434C54.7468 26.8892 55.0933 25.3476 55.236 23.8059C55.4365 21.6288 55.5248 19.3962 55.3583 17.2156C55.3006 16.4483 55.2088 15.6844 55.0492 14.9309C55.0118 14.7712 54.9608 14.5976 54.9031 14.4205C54.7638 13.983 54.5973 13.5073 54.6415 13.1115C54.6721 12.8233 54.8181 12.5524 55.1341 12.6496C56.296 12.9969 56.5032 15.4899 56.6051 16.4621C56.7716 18.0073 56.6969 19.5594 56.6289 21.1045Z" fill="#327609"/>
</g>
<path d="M121.496 17.28C122.083 17.28 122.696 17.3333 123.336 17.44C123.976 17.5333 124.476 17.66 124.836 17.82C124.956 17.86 125.03 17.9133 125.056 17.98C125.096 18.0333 125.13 18.1333 125.156 18.28L125.396 21.06C125.396 21.1 125.363 21.1267 125.296 21.14C125.23 21.1533 125.19 21.1333 125.176 21.08C124.723 20.0267 124.116 19.2133 123.356 18.64C122.596 18.0667 121.716 17.78 120.716 17.78C119.396 17.78 118.376 18.2667 117.656 19.24C116.936 20.2133 116.576 21.52 116.576 23.16C116.576 24.3867 116.77 25.5067 117.156 26.52C117.556 27.5333 118.11 28.34 118.816 28.94C119.536 29.5267 120.35 29.82 121.256 29.82C122.11 29.82 122.87 29.54 123.536 28.98C124.216 28.4067 124.823 27.54 125.356 26.38C125.37 26.3267 125.41 26.3067 125.476 26.32C125.556 26.3333 125.596 26.36 125.596 26.4L125.296 29.12C125.27 29.28 125.236 29.3867 125.196 29.44C125.17 29.48 125.096 29.5267 124.976 29.58C123.79 30.02 122.57 30.24 121.316 30.24C119.69 30.24 118.33 29.92 117.236 29.28C116.143 28.6267 115.336 27.8067 114.816 26.82C114.31 25.82 114.056 24.78 114.056 23.7C114.056 22.4333 114.396 21.3133 115.076 20.34C115.77 19.3667 116.683 18.6133 117.816 18.08C118.963 17.5467 120.19 17.28 121.496 17.28ZM134.835 28.92C134.888 28.92 134.922 28.9533 134.935 29.02C134.962 29.0733 134.948 29.1133 134.895 29.14L132.835 30.12C132.782 30.1467 132.715 30.16 132.635 30.16C132.435 30.16 132.235 30.06 132.035 29.86C131.848 29.66 131.715 29.3867 131.635 29.04L130.715 29.54C130.368 29.7133 130.008 29.86 129.635 29.98C129.262 30.0867 128.928 30.14 128.635 30.14C128.208 30.14 127.868 30.0333 127.615 29.82C127.375 29.5933 127.255 29.2733 127.255 28.86C127.255 28.5533 127.328 28.3067 127.475 28.12C127.635 27.9333 127.855 27.78 128.135 27.66C128.428 27.5267 128.888 27.3533 129.515 27.14L131.555 26.48V24.9C131.555 24.1 131.475 23.5133 131.315 23.14C131.155 22.7533 130.895 22.56 130.535 22.56C130.215 22.56 129.962 22.68 129.775 22.92C129.588 23.16 129.475 23.5533 129.435 24.1C129.355 24.8467 128.962 25.22 128.255 25.22C127.628 25.22 127.315 24.9467 127.315 24.4C127.315 24.04 127.542 23.68 127.995 23.32C128.448 22.96 128.995 22.6667 129.635 22.44C130.275 22.2133 130.835 22.1 131.315 22.1C131.942 22.1 132.448 22.2867 132.835 22.66C133.235 23.0333 133.435 23.58 133.435 24.3V27.84C133.435 28.2267 133.502 28.5267 133.635 28.74C133.782 28.9533 133.982 29.06 134.235 29.06C134.422 29.06 134.615 29.0133 134.815 28.92H134.835ZM131.575 28.72C131.562 28.6267 131.555 28.4867 131.555 28.3V26.82L130.455 27.22C130.095 27.3533 129.835 27.5 129.675 27.66C129.528 27.82 129.455 28.0133 129.455 28.24C129.455 28.52 129.535 28.74 129.695 28.9C129.855 29.06 130.055 29.14 130.295 29.14C130.588 29.14 130.928 29.0467 131.315 28.86L131.575 28.72ZM139.553 30.24C138.673 30.24 137.926 30.0533 137.313 29.68C136.713 29.2933 136.26 28.8 135.953 28.2C135.66 27.5867 135.513 26.9467 135.513 26.28C135.513 25.44 135.746 24.7067 136.213 24.08C136.68 23.44 137.273 22.9533 137.993 22.62C138.726 22.2733 139.473 22.1 140.233 22.1C140.873 22.1 141.446 22.2333 141.953 22.5C142.473 22.7667 142.733 23.1333 142.733 23.6C142.733 23.8533 142.633 24.0733 142.433 24.26C142.246 24.4333 141.98 24.52 141.633 24.52C141.313 24.52 141.06 24.44 140.873 24.28C140.686 24.1067 140.533 23.8467 140.413 23.5C140.293 23.1267 140.173 22.8733 140.053 22.74C139.946 22.5933 139.746 22.52 139.453 22.52C138.88 22.52 138.42 22.8067 138.073 23.38C137.74 23.94 137.573 24.6867 137.573 25.62C137.573 26.7267 137.82 27.6133 138.313 28.28C138.806 28.9333 139.593 29.26 140.673 29.26C141.033 29.26 141.34 29.22 141.593 29.14C141.86 29.06 142.193 28.9267 142.593 28.74H142.613C142.653 28.74 142.686 28.76 142.713 28.8C142.753 28.84 142.76 28.8733 142.733 28.9C142.24 29.3533 141.746 29.6933 141.253 29.92C140.76 30.1333 140.193 30.24 139.553 30.24ZM149.849 28.6C149.902 28.6 149.942 28.6267 149.969 28.68C150.009 28.7333 150.009 28.7733 149.969 28.8C149.476 29.2933 148.996 29.66 148.529 29.9C148.062 30.1267 147.569 30.24 147.049 30.24C146.462 30.24 145.962 30.1 145.549 29.82C145.136 29.54 144.929 29.0667 144.929 28.4V23.96C144.929 23.5467 144.856 23.26 144.709 23.1C144.562 22.94 144.296 22.86 143.909 22.86C143.896 22.86 143.876 22.84 143.849 22.8C143.836 22.76 143.829 22.72 143.829 22.68C143.829 22.6267 143.836 22.5867 143.849 22.56C143.862 22.52 143.882 22.5 143.909 22.5C144.589 22.4733 145.136 22.3267 145.549 22.06C145.976 21.7933 146.302 21.3867 146.529 20.84C146.556 20.7867 146.609 20.76 146.689 20.76C146.782 20.76 146.829 20.7867 146.829 20.84V22.44C147.602 22.4267 148.469 22.3667 149.429 22.26C149.456 22.26 149.482 22.3133 149.509 22.42C149.549 22.5133 149.569 22.62 149.569 22.74C149.569 22.8733 149.542 23.0067 149.489 23.14C149.449 23.26 149.402 23.3133 149.349 23.3C148.482 23.1133 147.642 23.0133 146.829 23V27.74C146.829 28.2467 146.956 28.62 147.209 28.86C147.476 29.1 147.822 29.22 148.249 29.22C148.782 29.22 149.302 29.02 149.809 28.62L149.849 28.6ZM160.068 28.7C160.108 28.7 160.141 28.7333 160.168 28.8C160.208 28.8667 160.208 28.9067 160.168 28.92L157.408 30.26C157.381 30.2733 157.348 30.28 157.308 30.28C157.175 30.28 157.055 30.14 156.948 29.86C156.855 29.5667 156.801 29.1733 156.788 28.68C155.908 29.72 154.955 30.24 153.928 30.24C153.195 30.24 152.615 30.0133 152.188 29.56C151.775 29.0933 151.568 28.4867 151.568 27.74V24.8C151.568 23.9333 151.361 23.5 150.948 23.5C150.801 23.5 150.635 23.5467 150.448 23.64H150.428C150.375 23.64 150.335 23.6067 150.308 23.54C150.281 23.46 150.288 23.4133 150.328 23.4L153.008 22.12L153.108 22.1C153.175 22.1 153.241 22.1333 153.308 22.2C153.388 22.2533 153.428 22.3067 153.428 22.36V26.78C153.428 28.22 153.981 28.94 155.088 28.94C155.381 28.94 155.675 28.88 155.968 28.76C156.275 28.6267 156.548 28.4467 156.788 28.22V24.8C156.788 23.9333 156.581 23.5 156.168 23.5C156.021 23.5 155.848 23.5467 155.648 23.64H155.628C155.588 23.64 155.555 23.6067 155.528 23.54C155.501 23.46 155.508 23.4133 155.548 23.4L158.228 22.12C158.255 22.1067 158.288 22.1 158.328 22.1C158.395 22.1 158.461 22.1333 158.528 22.2C158.608 22.2533 158.648 22.3067 158.648 22.36V27.68C158.648 28.1333 158.688 28.4533 158.768 28.64C158.861 28.8267 159.008 28.92 159.208 28.92C159.395 28.92 159.668 28.8467 160.028 28.7H160.068ZM162.546 23.24C162.546 23.6267 162.679 23.96 162.946 24.24C163.226 24.52 163.626 24.8133 164.146 25.12C164.652 25.4133 165.026 25.6467 165.266 25.82C165.519 25.98 165.746 26.2133 165.946 26.52C166.146 26.8133 166.246 27.1733 166.246 27.6C166.246 28.0533 166.132 28.48 165.906 28.88C165.679 29.28 165.339 29.6067 164.886 29.86C164.432 30.1 163.892 30.22 163.266 30.22C162.532 30.22 161.839 30.04 161.186 29.68C161.106 29.6 161.066 29.52 161.066 29.44L161.026 27.46C161.026 27.42 161.059 27.4 161.126 27.4C161.206 27.3867 161.252 27.3933 161.266 27.42C161.479 28.0867 161.832 28.6533 162.326 29.12C162.819 29.5867 163.319 29.82 163.826 29.82C164.106 29.82 164.326 29.7333 164.486 29.56C164.659 29.3867 164.746 29.1333 164.746 28.8C164.746 28.3067 164.606 27.92 164.326 27.64C164.046 27.3467 163.632 27.0467 163.086 26.74C162.619 26.4867 162.266 26.28 162.026 26.12C161.786 25.96 161.572 25.7333 161.386 25.44C161.199 25.1467 161.106 24.7867 161.106 24.36C161.106 23.5733 161.386 23 161.946 22.64C162.506 22.2667 163.192 22.08 164.006 22.08C164.312 22.08 164.586 22.1 164.826 22.14C165.079 22.18 165.359 22.26 165.666 22.38C165.786 22.42 165.846 22.4933 165.846 22.6C165.846 22.9333 165.839 23.1933 165.826 23.38L165.806 24.38C165.806 24.42 165.766 24.44 165.686 24.44C165.606 24.44 165.566 24.42 165.566 24.38C165.566 24.1267 165.459 23.8533 165.246 23.56C165.032 23.2533 164.752 22.9933 164.406 22.78C164.072 22.5667 163.726 22.46 163.366 22.46C162.819 22.46 162.546 22.72 162.546 23.24ZM98.9638 44.34C98.9638 44.3667 98.9238 44.3867 98.8438 44.4C98.7772 44.4133 98.7372 44.4 98.7238 44.36C98.5105 43.5867 98.1505 43.0133 97.6438 42.64C97.1372 42.2667 96.4705 42.08 95.6438 42.08H95.0438C94.6438 42.08 94.3505 42.1667 94.1638 42.34C93.9772 42.5133 93.8838 42.78 93.8838 43.14V47.46H95.3238C96.0972 47.46 96.6838 47.3267 97.0838 47.06C97.4972 46.78 97.7038 46.4 97.7038 45.92C97.7038 45.8933 97.7438 45.88 97.8238 45.88C97.9038 45.88 97.9438 45.8933 97.9438 45.92L97.9238 47.74C97.9238 48.1667 97.9305 48.4867 97.9438 48.7L97.9638 49.76C97.9638 49.8 97.9238 49.82 97.8438 49.82C97.7638 49.82 97.7238 49.8 97.7238 49.76C97.7238 49.2267 97.5105 48.8067 97.0838 48.5C96.6705 48.18 96.0772 48.02 95.3038 48.02H93.8838V52.3C93.8838 52.7133 93.9372 53.02 94.0438 53.22C94.1505 53.42 94.3505 53.56 94.6438 53.64C94.9372 53.72 95.3972 53.76 96.0238 53.76C96.0505 53.76 96.0638 53.8 96.0638 53.88C96.0638 53.96 96.0505 54 96.0238 54C95.4772 54 95.0505 53.9933 94.7438 53.98L92.7038 53.96L91.2038 53.98C90.9372 53.9933 90.5705 54 90.1038 54C90.0638 54 90.0438 53.96 90.0438 53.88C90.0438 53.8 90.0638 53.76 90.1038 53.76C90.5705 53.76 90.9105 53.7267 91.1238 53.66C91.3372 53.5933 91.4772 53.4667 91.5438 53.28C91.6238 53.08 91.6638 52.78 91.6638 52.38V43.12C91.6638 42.72 91.6305 42.4267 91.5638 42.24C91.4972 42.0533 91.3638 41.9267 91.1638 41.86C90.9638 41.78 90.6572 41.74 90.2438 41.74C90.2038 41.74 90.1838 41.7 90.1838 41.62C90.1838 41.54 90.2038 41.5 90.2438 41.5H98.7238C98.8572 41.5 98.9238 41.56 98.9238 41.68L98.9638 44.34ZM100.653 54C100.613 54 100.593 53.96 100.593 53.88C100.593 53.8 100.613 53.76 100.653 53.76C101.066 53.76 101.346 53.6667 101.493 53.48C101.64 53.28 101.713 52.9133 101.713 52.38V48.8C101.713 48.3467 101.666 48.02 101.573 47.82C101.48 47.62 101.326 47.52 101.113 47.52C100.94 47.52 100.693 47.5933 100.373 47.74H100.353C100.3 47.74 100.26 47.7067 100.233 47.64C100.206 47.56 100.213 47.5133 100.253 47.5L103.273 46.1L103.333 46.08C103.4 46.08 103.466 46.1133 103.533 46.18C103.6 46.2467 103.633 46.3067 103.633 46.36V46.8C103.606 47.3333 103.593 47.9867 103.593 48.76V52.38C103.593 52.9133 103.666 53.28 103.813 53.48C103.973 53.6667 104.26 53.76 104.673 53.76C104.713 53.76 104.733 53.8 104.733 53.88C104.733 53.96 104.713 54 104.673 54C104.326 54 104.053 53.9933 103.853 53.98L102.653 53.96L101.473 53.98C101.273 53.9933 101 54 100.653 54ZM102.573 44.1C102.186 44.1 101.886 43.9933 101.673 43.78C101.46 43.5667 101.353 43.2667 101.353 42.88C101.353 42.5333 101.46 42.26 101.673 42.06C101.9 41.8467 102.2 41.74 102.573 41.74C102.946 41.74 103.233 41.84 103.433 42.04C103.633 42.24 103.733 42.52 103.733 42.88C103.733 43.2667 103.633 43.5667 103.433 43.78C103.233 43.9933 102.946 44.1 102.573 44.1ZM112.887 52.68C112.914 52.68 112.94 52.7067 112.967 52.76C113.007 52.8133 113.014 52.8533 112.987 52.88C112.494 53.36 111.994 53.7067 111.487 53.92C110.98 54.1333 110.427 54.24 109.827 54.24C108.987 54.24 108.26 54.0667 107.647 53.72C107.034 53.36 106.567 52.8867 106.247 52.3C105.927 51.7 105.767 51.06 105.767 50.38C105.767 49.6067 105.967 48.8933 106.367 48.24C106.767 47.5733 107.314 47.0533 108.007 46.68C108.7 46.2933 109.474 46.1 110.327 46.1C111.154 46.1 111.787 46.28 112.227 46.64C112.667 46.9867 112.887 47.4667 112.887 48.08C112.887 48.4667 112.814 48.66 112.667 48.66H111.447L107.847 48.7C107.807 48.9533 107.787 49.2333 107.787 49.54C107.787 50.6867 108.054 51.5933 108.587 52.26C109.134 52.9267 109.88 53.26 110.827 53.26C111.16 53.26 111.507 53.2133 111.867 53.12C112.227 53.0267 112.554 52.8867 112.847 52.7L112.887 52.68ZM109.587 46.5C109.187 46.5 108.84 46.66 108.547 46.98C108.254 47.3 108.04 47.74 107.907 48.3L110.747 48.24C110.707 47.08 110.32 46.5 109.587 46.5ZM114.186 54C114.16 54 114.146 53.96 114.146 53.88C114.146 53.8 114.16 53.76 114.186 53.76C114.6 53.76 114.88 53.6667 115.026 53.48C115.186 53.28 115.266 52.9133 115.266 52.38L115.286 42.22C115.286 41.7533 115.24 41.42 115.146 41.22C115.066 41.02 114.92 40.92 114.706 40.92C114.533 40.92 114.28 40.9933 113.946 41.14H113.926C113.886 41.14 113.846 41.1067 113.806 41.04C113.78 40.96 113.78 40.9133 113.806 40.9L116.746 39.52L116.826 39.5C116.893 39.5 116.966 39.5333 117.046 39.6C117.126 39.6533 117.166 39.7067 117.166 39.76V52.38C117.166 52.9133 117.24 53.28 117.386 53.48C117.533 53.6667 117.813 53.76 118.226 53.76C118.28 53.76 118.306 53.8 118.306 53.88C118.306 53.96 118.28 54 118.226 54C117.893 54 117.626 53.9933 117.426 53.98L116.206 53.96L115.006 53.98C114.806 53.9933 114.533 54 114.186 54ZM128.898 52.7C128.938 52.7 128.971 52.7333 128.998 52.8C129.038 52.8667 129.045 52.9067 129.018 52.92L126.258 54.26L126.158 54.28C126.038 54.28 125.925 54.1533 125.818 53.9C125.725 53.6467 125.665 53.3 125.638 52.86C124.651 53.7933 123.645 54.26 122.618 54.26C122.031 54.26 121.498 54.1067 121.018 53.8C120.551 53.4933 120.178 53.0467 119.898 52.46C119.618 51.86 119.478 51.16 119.478 50.36C119.478 49.3467 119.711 48.52 120.178 47.88C120.658 47.2267 121.245 46.7533 121.938 46.46C122.645 46.1667 123.351 46.02 124.058 46.02C124.551 46.02 125.071 46.1 125.618 46.26V42.22C125.618 41.7533 125.571 41.42 125.478 41.22C125.398 41.02 125.251 40.92 125.038 40.92C124.865 40.92 124.618 40.9933 124.298 41.14H124.278C124.225 41.14 124.178 41.1067 124.138 41.04C124.111 40.96 124.111 40.9133 124.138 40.9L127.078 39.52L127.158 39.5C127.225 39.5 127.298 39.5333 127.378 39.6C127.458 39.6533 127.498 39.7067 127.498 39.76V51.68C127.498 52.1333 127.538 52.4533 127.618 52.64C127.711 52.8267 127.858 52.92 128.058 52.92C128.231 52.92 128.505 52.8467 128.878 52.7H128.898ZM123.718 53.3C124.385 53.3 125.018 53.02 125.618 52.46V52.36V47.5C125.378 47.1667 125.105 46.9267 124.798 46.78C124.505 46.62 124.158 46.54 123.758 46.54C123.038 46.54 122.485 46.7933 122.098 47.3C121.725 47.7933 121.538 48.6 121.538 49.72C121.538 50.84 121.738 51.72 122.138 52.36C122.538 52.9867 123.065 53.3 123.718 53.3ZM131.393 47.24C131.393 47.6267 131.527 47.96 131.793 48.24C132.073 48.52 132.473 48.8133 132.993 49.12C133.5 49.4133 133.873 49.6467 134.113 49.82C134.367 49.98 134.593 50.2133 134.793 50.52C134.993 50.8133 135.093 51.1733 135.093 51.6C135.093 52.0533 134.98 52.48 134.753 52.88C134.527 53.28 134.187 53.6067 133.733 53.86C133.28 54.1 132.74 54.22 132.113 54.22C131.38 54.22 130.687 54.04 130.033 53.68C129.953 53.6 129.913 53.52 129.913 53.44L129.873 51.46C129.873 51.42 129.907 51.4 129.973 51.4C130.053 51.3867 130.1 51.3933 130.113 51.42C130.327 52.0867 130.68 52.6533 131.173 53.12C131.667 53.5867 132.167 53.82 132.673 53.82C132.953 53.82 133.173 53.7333 133.333 53.56C133.507 53.3867 133.593 53.1333 133.593 52.8C133.593 52.3067 133.453 51.92 133.173 51.64C132.893 51.3467 132.48 51.0467 131.933 50.74C131.467 50.4867 131.113 50.28 130.873 50.12C130.633 49.96 130.42 49.7333 130.233 49.44C130.047 49.1467 129.953 48.7867 129.953 48.36C129.953 47.5733 130.233 47 130.793 46.64C131.353 46.2667 132.04 46.08 132.853 46.08C133.16 46.08 133.433 46.1 133.673 46.14C133.927 46.18 134.207 46.26 134.513 46.38C134.633 46.42 134.693 46.4933 134.693 46.6C134.693 46.9333 134.687 47.1933 134.673 47.38L134.653 48.38C134.653 48.42 134.613 48.44 134.533 48.44C134.453 48.44 134.413 48.42 134.413 48.38C134.413 48.1267 134.307 47.8533 134.093 47.56C133.88 47.2533 133.6 46.9933 133.253 46.78C132.92 46.5667 132.573 46.46 132.213 46.46C131.667 46.46 131.393 46.72 131.393 47.24ZM154.799 53.76C154.866 53.76 154.899 53.8 154.899 53.88C154.899 53.96 154.866 54 154.799 54C154.532 54 154.119 53.9867 153.559 53.96C152.972 53.9333 152.552 53.92 152.299 53.92C151.966 53.92 151.559 53.9333 151.079 53.96C150.626 53.9867 150.266 54 149.999 54C149.946 54 149.919 53.96 149.919 53.88C149.919 53.8 149.946 53.76 149.999 53.76C150.346 53.76 150.592 53.7267 150.739 53.66C150.899 53.58 150.979 53.4467 150.979 53.26C150.979 53.0333 150.846 52.6533 150.579 52.12L148.499 48.02H144.939L143.519 51.16C143.346 51.5467 143.259 51.9067 143.259 52.24C143.259 52.72 143.426 53.0933 143.759 53.36C144.106 53.6267 144.566 53.76 145.139 53.76C145.206 53.76 145.239 53.8 145.239 53.88C145.239 53.96 145.206 54 145.139 54C144.899 54 144.552 53.9867 144.099 53.96C143.592 53.9333 143.152 53.92 142.779 53.92C142.419 53.92 141.986 53.9333 141.479 53.96C141.026 53.9867 140.659 54 140.379 54C140.326 54 140.299 53.96 140.299 53.88C140.299 53.8 140.326 53.76 140.379 53.76C140.752 53.76 141.066 53.6867 141.319 53.54C141.572 53.38 141.826 53.1067 142.079 52.72C142.332 52.32 142.632 51.7333 142.979 50.96L147.319 41.42C147.346 41.38 147.406 41.36 147.499 41.36C147.606 41.36 147.666 41.38 147.679 41.42L152.679 51.26C153.146 52.2067 153.532 52.86 153.839 53.22C154.146 53.58 154.466 53.76 154.799 53.76ZM145.199 47.46H148.219L146.619 44.3L145.199 47.46ZM161.155 39.48C161.902 39.48 162.482 39.5867 162.895 39.8C163.309 40 163.515 40.2867 163.515 40.66C163.515 40.9667 163.409 41.2067 163.195 41.38C162.995 41.5533 162.762 41.64 162.495 41.64C162.175 41.64 161.942 41.5667 161.795 41.42C161.649 41.2733 161.515 41.06 161.395 40.78C161.275 40.5 161.149 40.2933 161.015 40.16C160.882 40.0133 160.669 39.94 160.375 39.94C159.762 39.94 159.275 40.3667 158.915 41.22C158.569 42.0733 158.395 43.4067 158.395 45.22V46.44C158.809 46.4267 159.542 46.3667 160.595 46.26C160.635 46.26 160.669 46.3133 160.695 46.42C160.722 46.5133 160.735 46.62 160.735 46.74C160.735 46.8733 160.709 47.0067 160.655 47.14C160.615 47.26 160.575 47.3133 160.535 47.3C159.895 47.14 159.182 47.04 158.395 47V52.38C158.395 52.7933 158.435 53.0933 158.515 53.28C158.595 53.4667 158.755 53.5933 158.995 53.66C159.249 53.7267 159.642 53.76 160.175 53.76C160.229 53.76 160.255 53.8 160.255 53.88C160.255 53.96 160.229 54 160.175 54L158.795 53.98C158.489 53.9667 158.035 53.96 157.435 53.96L156.215 53.98C156.002 53.9933 155.702 54 155.315 54C155.262 54 155.235 53.96 155.235 53.88C155.235 53.8 155.262 53.76 155.315 53.76C155.662 53.76 155.915 53.7267 156.075 53.66C156.249 53.5933 156.362 53.4667 156.415 53.28C156.482 53.08 156.515 52.78 156.515 52.38V47.88C156.515 47.4667 156.429 47.2 156.255 47.08C156.082 46.9467 155.742 46.88 155.235 46.88C155.195 46.88 155.175 46.82 155.175 46.7C155.175 46.58 155.195 46.52 155.235 46.52C155.702 46.52 156.022 46.46 156.195 46.34C156.369 46.2067 156.462 45.9733 156.475 45.64C156.542 43.4667 156.955 41.9 157.715 40.94C158.475 39.9667 159.622 39.48 161.155 39.48ZM166.849 46.08C167.156 46.08 167.449 46.1933 167.729 46.42C168.022 46.6333 168.169 46.8933 168.169 47.2C168.169 47.48 168.082 47.7133 167.909 47.9C167.736 48.0733 167.509 48.16 167.229 48.16C167.029 48.16 166.862 48.12 166.729 48.04C166.609 47.96 166.482 47.84 166.349 47.68C166.229 47.5467 166.122 47.4533 166.029 47.4C165.949 47.3333 165.849 47.3 165.729 47.3C165.596 47.3 165.449 47.3533 165.289 47.46C165.142 47.5533 164.909 47.76 164.589 48.08V52.38C164.589 52.9133 164.716 53.28 164.969 53.48C165.222 53.6667 165.689 53.76 166.369 53.76C166.422 53.76 166.449 53.8 166.449 53.88C166.449 53.96 166.422 54 166.369 54C165.902 54 165.536 53.9933 165.269 53.98L163.649 53.96L162.469 53.98C162.269 53.9933 161.996 54 161.649 54C161.609 54 161.589 53.96 161.589 53.88C161.589 53.8 161.609 53.76 161.649 53.76C162.062 53.76 162.342 53.6667 162.489 53.48C162.636 53.28 162.709 52.9133 162.709 52.38V48.62C162.709 48.2067 162.656 47.9067 162.549 47.72C162.456 47.52 162.302 47.42 162.089 47.42C161.862 47.42 161.542 47.5133 161.129 47.7H161.089C161.049 47.7 161.016 47.6667 160.989 47.6C160.976 47.5333 160.982 47.4933 161.009 47.48L163.789 46.12C163.869 46.0933 163.916 46.08 163.929 46.08C164.076 46.08 164.209 46.22 164.329 46.5C164.462 46.7667 164.542 47.1333 164.569 47.6C165.116 47.04 165.562 46.6467 165.909 46.42C166.269 46.1933 166.582 46.08 166.849 46.08ZM169.227 54C169.187 54 169.167 53.96 169.167 53.88C169.167 53.8 169.187 53.76 169.227 53.76C169.641 53.76 169.921 53.6667 170.067 53.48C170.214 53.28 170.287 52.9133 170.287 52.38V48.8C170.287 48.3467 170.241 48.02 170.147 47.82C170.054 47.62 169.901 47.52 169.687 47.52C169.514 47.52 169.267 47.5933 168.947 47.74H168.927C168.874 47.74 168.834 47.7067 168.807 47.64C168.781 47.56 168.787 47.5133 168.827 47.5L171.847 46.1L171.907 46.08C171.974 46.08 172.041 46.1133 172.107 46.18C172.174 46.2467 172.207 46.3067 172.207 46.36V46.8C172.181 47.3333 172.167 47.9867 172.167 48.76V52.38C172.167 52.9133 172.241 53.28 172.387 53.48C172.547 53.6667 172.834 53.76 173.247 53.76C173.287 53.76 173.307 53.8 173.307 53.88C173.307 53.96 173.287 54 173.247 54C172.901 54 172.627 53.9933 172.427 53.98L171.227 53.96L170.047 53.98C169.847 53.9933 169.574 54 169.227 54ZM171.147 44.1C170.761 44.1 170.461 43.9933 170.247 43.78C170.034 43.5667 169.927 43.2667 169.927 42.88C169.927 42.5333 170.034 42.26 170.247 42.06C170.474 41.8467 170.774 41.74 171.147 41.74C171.521 41.74 171.807 41.84 172.007 42.04C172.207 42.24 172.307 42.52 172.307 42.88C172.307 43.2667 172.207 43.5667 172.007 43.78C171.807 43.9933 171.521 44.1 171.147 44.1ZM178.381 54.24C177.501 54.24 176.755 54.0533 176.141 53.68C175.541 53.2933 175.088 52.8 174.781 52.2C174.488 51.5867 174.341 50.9467 174.341 50.28C174.341 49.44 174.575 48.7067 175.041 48.08C175.508 47.44 176.101 46.9533 176.821 46.62C177.555 46.2733 178.301 46.1 179.061 46.1C179.701 46.1 180.275 46.2333 180.781 46.5C181.301 46.7667 181.561 47.1333 181.561 47.6C181.561 47.8533 181.461 48.0733 181.261 48.26C181.075 48.4333 180.808 48.52 180.461 48.52C180.141 48.52 179.888 48.44 179.701 48.28C179.515 48.1067 179.361 47.8467 179.241 47.5C179.121 47.1267 179.001 46.8733 178.881 46.74C178.775 46.5933 178.575 46.52 178.281 46.52C177.708 46.52 177.248 46.8067 176.901 47.38C176.568 47.94 176.401 48.6867 176.401 49.62C176.401 50.7267 176.648 51.6133 177.141 52.28C177.635 52.9333 178.421 53.26 179.501 53.26C179.861 53.26 180.168 53.22 180.421 53.14C180.688 53.06 181.021 52.9267 181.421 52.74H181.441C181.481 52.74 181.515 52.76 181.541 52.8C181.581 52.84 181.588 52.8733 181.561 52.9C181.068 53.3533 180.575 53.6933 180.081 53.92C179.588 54.1333 179.021 54.24 178.381 54.24ZM190.538 52.92C190.592 52.92 190.625 52.9533 190.638 53.02C190.665 53.0733 190.652 53.1133 190.598 53.14L188.538 54.12C188.485 54.1467 188.418 54.16 188.338 54.16C188.138 54.16 187.938 54.06 187.738 53.86C187.552 53.66 187.418 53.3867 187.338 53.04L186.418 53.54C186.072 53.7133 185.712 53.86 185.338 53.98C184.965 54.0867 184.632 54.14 184.338 54.14C183.912 54.14 183.572 54.0333 183.318 53.82C183.078 53.5933 182.958 53.2733 182.958 52.86C182.958 52.5533 183.032 52.3067 183.178 52.12C183.338 51.9333 183.558 51.78 183.838 51.66C184.132 51.5267 184.592 51.3533 185.218 51.14L187.258 50.48V48.9C187.258 48.1 187.178 47.5133 187.018 47.14C186.858 46.7533 186.598 46.56 186.238 46.56C185.918 46.56 185.665 46.68 185.478 46.92C185.292 47.16 185.178 47.5533 185.138 48.1C185.058 48.8467 184.665 49.22 183.958 49.22C183.332 49.22 183.018 48.9467 183.018 48.4C183.018 48.04 183.245 47.68 183.698 47.32C184.152 46.96 184.698 46.6667 185.338 46.44C185.978 46.2133 186.538 46.1 187.018 46.1C187.645 46.1 188.152 46.2867 188.538 46.66C188.938 47.0333 189.138 47.58 189.138 48.3V51.84C189.138 52.2267 189.205 52.5267 189.338 52.74C189.485 52.9533 189.685 53.06 189.938 53.06C190.125 53.06 190.318 53.0133 190.518 52.92H190.538ZM187.278 52.72C187.265 52.6267 187.258 52.4867 187.258 52.3V50.82L186.158 51.22C185.798 51.3533 185.538 51.5 185.378 51.66C185.232 51.82 185.158 52.0133 185.158 52.24C185.158 52.52 185.238 52.74 185.398 52.9C185.558 53.06 185.758 53.14 185.998 53.14C186.292 53.14 186.632 53.0467 187.018 52.86L187.278 52.72Z" fill="white"/>
<defs>
<clipPath id="clip0_1_14">
<rect width="67.3137" height="80" fill="white"/>
</clipPath>
<clipPath id="clip1_1_14">
<rect width="43.4858" height="44.4444" fill="white" transform="translate(18.488 10.5238)"/>
</clipPath>
<clipPath id="clip2_1_14">
<rect width="43.4858" height="44.4444" fill="white" transform="translate(15.488 9.52383)"/>
</clipPath>
</defs>
</svg>
